<svg width="215" height="200" viewBox="0 0 215 200" fill="none" xmlns="http://www.w3.org/2000/svg">
<ellipse cx="107.5" cy="100" rx="107.5" ry="100" fill="url(#paint0_linear_2618_387)"/>
<g clip-path="url(#clip0_2618_387)">
<g clip-path="url(#clip1_2618_387)">
<mask id="mask0_2618_387" style="mask-type:luminance" maskUnits="userSpaceOnUse" x="36" y="27" width="48" height="58">
<path d="M83.7594 27.7605H36.7594V84.7605H83.7594V27.7605Z" fill="white"/>
</mask>
<g mask="url(#mask0_2618_387)">
<path d="M78.6953 71.6248C78.6953 74.5239 77.9602 76.8708 77.0609 76.8708C76.158 76.8708 75.4264 74.5239 75.4264 71.6248C75.4264 68.7257 76.158 66.3749 77.0609 66.3749C77.9602 66.3749 78.6953 68.7297 78.6953 71.6248Z" fill="#2F2F2F"/>
<path d="M76.3507 76.3541C76.3507 76.3541 76.7861 77.1232 77.2572 77.3836C78.3242 77.9713 79.8088 77.7543 80.701 76.4133L80.2228 73.2183L77.2036 73.8534L76.3507 76.3541Z" fill="#2F2F2F"/>
<path d="M45.3565 78.2711C45.3565 81.3674 44.3679 83.88 43.1546 83.88C41.9376 83.88 40.9491 81.3674 40.9491 78.2711C40.9491 75.1708 41.9376 72.6583 43.1546 72.6583C44.3679 72.6622 45.3565 75.1708 45.3565 78.2711Z" fill="#2F2F2F"/>
<path d="M42.1946 83.3317C42.1946 83.3317 42.7798 84.1561 43.4222 84.4322C44.8604 85.0593 46.8589 84.8266 48.0615 83.3987L47.4156 79.9829L43.3473 80.6613L42.1946 83.3317Z" fill="#2F2F2F"/>
<path d="M49.3677 78.2711C49.3677 81.3674 48.3792 83.88 47.1658 83.88C45.9489 83.88 44.9603 81.3674 44.9603 78.2711C44.9603 75.1708 45.9489 72.6583 47.1658 72.6583C48.3792 72.6622 49.3677 75.1708 49.3677 78.2711Z" fill="#2F2F2F"/>
<path d="M69.2919 78.2711C69.2919 81.3674 68.3034 83.88 67.09 83.88C65.8731 83.88 64.8845 81.3674 64.8845 78.2711C64.8845 75.1708 65.8731 72.6583 67.09 72.6583C68.3034 72.6622 69.2919 75.1708 69.2919 78.2711Z" fill="#2F2F2F"/>
<path d="M66.13 83.3317C66.13 83.3317 66.7153 84.1561 67.3576 84.4322C68.7958 85.0593 70.7943 84.8266 72.0005 83.3987L71.3546 79.9829L67.2863 80.6613L66.13 83.3317Z" fill="#2F2F2F"/>
<path d="M77.5784 42.0105H43.0725C39.4931 42.0105 36.9521 44.4284 36.9521 47.9862V73.3643C36.9521 77.3165 39.8535 80.5233 43.4294 80.5233H63.2964C68.5139 80.5233 70.2197 79.7778 73.4102 77.4546C76.6898 75.0682 82.5746 71.1239 82.5746 67.8895V47.9507C82.5746 43.9985 81.1543 42.0105 77.5784 42.0105Z" fill="#FCC21B"/>
<path d="M36.7594 69.5659H67.5681V81.1741H36.7594V69.5659Z" fill="#ED6C30"/>
<path d="M67.5681 83.5762L83.7594 71.8812V58.8293L67.5681 69.5659V83.5762Z" fill="#ED6C30"/>
<path d="M65.484 63.7124C65.484 65.0377 64.5098 66.1185 63.3071 66.1185H42.3944C41.1953 66.1185 40.2211 65.0377 40.2211 63.7124V48.4319C40.2211 47.1066 41.1953 46.0259 42.3944 46.0259H63.3035C64.5062 46.0259 65.4805 47.1066 65.4805 48.4319V63.7124H65.484Z" fill="#40C0E7"/>
<path d="M39.2539 45.0989H66.733V52.1515H39.2539V45.0989Z" fill="#2F2F2F"/>
<path d="M44.118 47.434H61.8653V50.629H44.118V47.434Z" fill="white"/>
<path d="M75.587 56.51C75.587 57.5355 75.0446 58.7031 74.3344 59.1488L71.69 60.8094C70.7122 61.4168 69.8593 60.8764 69.8593 59.5472V48.7317C69.8593 47.4064 70.7157 46.3296 71.69 46.3296H74.3344C75.0446 46.3296 75.587 47.1619 75.587 48.1795V56.51ZM79.841 47.7575C79.841 46.9804 79.5804 46.3493 79.245 46.3493H78.053C77.6391 46.3493 77.2822 47.1027 77.2822 48.0257V55.5436C77.2822 56.4666 77.6391 56.9794 78.053 56.6914L79.245 55.8868C79.5804 55.658 79.841 54.8534 79.841 54.0763V47.7575Z" fill="#40C0E7"/>
<path d="M42.6335 76.9615C43.9875 76.9615 45.0852 75.7501 45.0852 74.2557C45.0852 72.7613 43.9875 71.5499 42.6335 71.5499C41.2794 71.5499 40.1818 72.7613 40.1818 74.2557C40.1818 75.7501 41.2794 76.9615 42.6335 76.9615Z" fill="white"/>
<path d="M65.1343 74.2557C65.1343 75.7506 64.0351 76.9615 62.679 76.9615C61.33 76.9615 60.2308 75.7506 60.2308 74.2557C60.2308 72.7568 61.3264 71.5499 62.679 71.5499C64.0351 71.5499 65.1343 72.7568 65.1343 74.2557Z" fill="white"/>
<path d="M73.3031 78.2711C73.3031 81.3674 72.3146 83.88 71.1012 83.88C69.8843 83.88 68.8958 81.3674 68.8958 78.2711C68.8958 75.1708 69.8843 72.6583 71.1012 72.6583C72.3146 72.6622 73.3031 75.1708 73.3031 78.2711Z" fill="#2F2F2F"/>
<path d="M81.6681 71.6248C81.6681 74.5239 80.9365 76.8708 80.0336 76.8708C79.1308 76.8708 78.3992 74.5239 78.3992 71.6248C78.3992 68.7257 79.1308 66.3749 80.0336 66.3749C80.9401 66.3749 81.6681 68.7297 81.6681 71.6248Z" fill="#2F2F2F"/>
</g>
</g>
<mask id="path-21-outside-1_2618_387" maskUnits="userSpaceOnUse" x="45" y="89" width="106" height="34" fill="black">
<rect fill="white" x="45" y="89" width="106" height="34"/>
<path d="M62.964 109.788V103.56H52.776V110.832L54.864 110.94V114H46.152V111.084L47.34 110.976C48.036 110.904 48.384 110.568 48.384 109.968V93.228L46.332 93.12V90.06H55.044V92.976L53.856 93.084C53.472 93.132 53.196 93.24 53.028 93.408C52.86 93.552 52.776 93.84 52.776 94.272V99.852H62.964V93.228L60.912 93.12V90.06H69.624V92.976L68.436 93.084C67.74 93.156 67.392 93.54 67.392 94.236V110.832L69.444 110.94V114H60.732V111.084L61.92 110.976C62.28 110.928 62.544 110.832 62.712 110.688C62.88 110.52 62.964 110.22 62.964 109.788ZM87.9809 96.612V110.004C87.9809 110.388 88.0409 110.652 88.1609 110.796C88.3049 110.94 88.5449 111.024 88.8809 111.048L90.0329 111.12V114H84.3089V111.912L84.2009 111.876C83.0009 113.604 81.3569 114.468 79.2689 114.468C76.8209 114.468 75.0089 113.688 73.8329 112.128C72.6569 110.568 72.0689 108.432 72.0689 105.72C72.0689 102.456 72.8609 99.912 74.4449 98.088C76.0289 96.264 78.4049 95.352 81.5729 95.352C83.6129 95.352 85.7489 95.772 87.9809 96.612ZM83.8049 108.276V98.952C83.1329 98.64 82.2089 98.484 81.0329 98.484C79.4249 98.484 78.2609 99.132 77.5409 100.428C76.8209 101.724 76.4609 103.44 76.4609 105.576C76.4609 109.464 77.7089 111.408 80.2049 111.408C81.2609 111.408 82.1249 111.096 82.7969 110.472C83.4689 109.824 83.8049 109.092 83.8049 108.276ZM93.9071 117.42V99.996C93.9071 99.588 93.8351 99.312 93.6911 99.168C93.5711 99 93.3431 98.916 93.0071 98.916L91.4951 98.808V95.892H97.5791V98.232C97.9631 97.512 98.6591 96.852 99.6671 96.252C100.675 95.652 101.875 95.352 103.267 95.352C107.611 95.352 109.783 98.4 109.783 104.496C109.783 107.736 109.075 110.22 107.659 111.948C106.243 113.676 104.323 114.54 101.899 114.54C100.459 114.54 99.1751 114.192 98.0471 113.496V118.464L100.963 118.608V121.452H91.6751V118.716L92.8631 118.608C93.2231 118.56 93.4871 118.452 93.6551 118.284C93.8231 118.14 93.9071 117.852 93.9071 117.42ZM105.319 104.856C105.319 100.848 104.107 98.844 101.683 98.844C100.675 98.844 99.8111 99.156 99.0911 99.78C98.3951 100.38 98.0471 101.1 98.0471 101.94V110.22C98.9591 110.82 100.063 111.12 101.359 111.12C102.679 111.12 103.663 110.52 104.311 109.32C104.983 108.12 105.319 106.632 105.319 104.856ZM114.368 117.42V99.996C114.368 99.588 114.296 99.312 114.152 99.168C114.032 99 113.804 98.916 113.468 98.916L111.956 98.808V95.892H118.04V98.232C118.424 97.512 119.12 96.852 120.128 96.252C121.136 95.652 122.336 95.352 123.728 95.352C128.072 95.352 130.244 98.4 130.244 104.496C130.244 107.736 129.536 110.22 128.12 111.948C126.704 113.676 124.784 114.54 122.36 114.54C120.92 114.54 119.636 114.192 118.508 113.496V118.464L121.424 118.608V121.452H112.136V118.716L113.324 118.608C113.684 118.56 113.948 118.452 114.116 118.284C114.284 118.14 114.368 117.852 114.368 117.42ZM125.78 104.856C125.78 100.848 124.568 98.844 122.144 98.844C121.136 98.844 120.272 99.156 119.552 99.78C118.856 100.38 118.508 101.1 118.508 101.94V110.22C119.42 110.82 120.524 111.12 121.82 111.12C123.14 111.12 124.124 110.52 124.772 109.32C125.444 108.12 125.78 106.632 125.78 104.856ZM146.061 113.316V110.58C144.741 112.452 142.797 113.388 140.229 113.388C136.509 113.388 134.649 111.312 134.649 107.16V99.924C134.649 99.276 134.349 98.94 133.749 98.916L132.597 98.844V95.892H138.933V106.224C138.933 107.496 139.113 108.456 139.473 109.104C139.833 109.752 140.577 110.076 141.705 110.076C142.833 110.076 143.733 109.728 144.405 109.032C145.101 108.336 145.449 107.496 145.449 106.512V99.996C145.449 99.588 145.377 99.312 145.233 99.168C145.113 99 144.885 98.916 144.549 98.916L143.397 98.844V95.892H149.733V113.316C149.733 116.22 149.025 118.344 147.609 119.688C146.217 121.032 144.093 121.704 141.237 121.704C138.405 121.704 136.197 121.308 134.613 120.516V115.512L138.033 115.224V116.952C138.033 117.6 138.333 118.032 138.933 118.248C139.533 118.488 140.361 118.608 141.417 118.608C144.513 118.608 146.061 116.844 146.061 113.316Z"/>
</mask>
<path d="M62.964 109.788V103.56H52.776V110.832L54.864 110.94V114H46.152V111.084L47.34 110.976C48.036 110.904 48.384 110.568 48.384 109.968V93.228L46.332 93.12V90.06H55.044V92.976L53.856 93.084C53.472 93.132 53.196 93.24 53.028 93.408C52.86 93.552 52.776 93.84 52.776 94.272V99.852H62.964V93.228L60.912 93.12V90.06H69.624V92.976L68.436 93.084C67.74 93.156 67.392 93.54 67.392 94.236V110.832L69.444 110.94V114H60.732V111.084L61.92 110.976C62.28 110.928 62.544 110.832 62.712 110.688C62.88 110.52 62.964 110.22 62.964 109.788ZM87.9809 96.612V110.004C87.9809 110.388 88.0409 110.652 88.1609 110.796C88.3049 110.94 88.5449 111.024 88.8809 111.048L90.0329 111.12V114H84.3089V111.912L84.2009 111.876C83.0009 113.604 81.3569 114.468 79.2689 114.468C76.8209 114.468 75.0089 113.688 73.8329 112.128C72.6569 110.568 72.0689 108.432 72.0689 105.72C72.0689 102.456 72.8609 99.912 74.4449 98.088C76.0289 96.264 78.4049 95.352 81.5729 95.352C83.6129 95.352 85.7489 95.772 87.9809 96.612ZM83.8049 108.276V98.952C83.1329 98.64 82.2089 98.484 81.0329 98.484C79.4249 98.484 78.2609 99.132 77.5409 100.428C76.8209 101.724 76.4609 103.44 76.4609 105.576C76.4609 109.464 77.7089 111.408 80.2049 111.408C81.2609 111.408 82.1249 111.096 82.7969 110.472C83.4689 109.824 83.8049 109.092 83.8049 108.276ZM93.9071 117.42V99.996C93.9071 99.588 93.8351 99.312 93.6911 99.168C93.5711 99 93.3431 98.916 93.0071 98.916L91.4951 98.808V95.892H97.5791V98.232C97.9631 97.512 98.6591 96.852 99.6671 96.252C100.675 95.652 101.875 95.352 103.267 95.352C107.611 95.352 109.783 98.4 109.783 104.496C109.783 107.736 109.075 110.22 107.659 111.948C106.243 113.676 104.323 114.54 101.899 114.54C100.459 114.54 99.1751 114.192 98.0471 113.496V118.464L100.963 118.608V121.452H91.6751V118.716L92.8631 118.608C93.2231 118.56 93.4871 118.452 93.6551 118.284C93.8231 118.14 93.9071 117.852 93.9071 117.42ZM105.319 104.856C105.319 100.848 104.107 98.844 101.683 98.844C100.675 98.844 99.8111 99.156 99.0911 99.78C98.3951 100.38 98.0471 101.1 98.0471 101.94V110.22C98.9591 110.82 100.063 111.12 101.359 111.12C102.679 111.12 103.663 110.52 104.311 109.32C104.983 108.12 105.319 106.632 105.319 104.856ZM114.368 117.42V99.996C114.368 99.588 114.296 99.312 114.152 99.168C114.032 99 113.804 98.916 113.468 98.916L111.956 98.808V95.892H118.04V98.232C118.424 97.512 119.12 96.852 120.128 96.252C121.136 95.652 122.336 95.352 123.728 95.352C128.072 95.352 130.244 98.4 130.244 104.496C130.244 107.736 129.536 110.22 128.12 111.948C126.704 113.676 124.784 114.54 122.36 114.54C120.92 114.54 119.636 114.192 118.508 113.496V118.464L121.424 118.608V121.452H112.136V118.716L113.324 118.608C113.684 118.56 113.948 118.452 114.116 118.284C114.284 118.14 114.368 117.852 114.368 117.42ZM125.78 104.856C125.78 100.848 124.568 98.844 122.144 98.844C121.136 98.844 120.272 99.156 119.552 99.78C118.856 100.38 118.508 101.1 118.508 101.94V110.22C119.42 110.82 120.524 111.12 121.82 111.12C123.14 111.12 124.124 110.52 124.772 109.32C125.444 108.12 125.78 106.632 125.78 104.856ZM146.061 113.316V110.58C144.741 112.452 142.797 113.388 140.229 113.388C136.509 113.388 134.649 111.312 134.649 107.16V99.924C134.649 99.276 134.349 98.94 133.749 98.916L132.597 98.844V95.892H138.933V106.224C138.933 107.496 139.113 108.456 139.473 109.104C139.833 109.752 140.577 110.076 141.705 110.076C142.833 110.076 143.733 109.728 144.405 109.032C145.101 108.336 145.449 107.496 145.449 106.512V99.996C145.449 99.588 145.377 99.312 145.233 99.168C145.113 99 144.885 98.916 144.549 98.916L143.397 98.844V95.892H149.733V113.316C149.733 116.22 149.025 118.344 147.609 119.688C146.217 121.032 144.093 121.704 141.237 121.704C138.405 121.704 136.197 121.308 134.613 120.516V115.512L138.033 115.224V116.952C138.033 117.6 138.333 118.032 138.933 118.248C139.533 118.488 140.361 118.608 141.417 118.608C144.513 118.608 146.061 116.844 146.061 113.316Z" fill="#40C0E7"/>
<path d="M62.964 103.56H63.964V102.56H62.964V103.56ZM52.776 103.56V102.56H51.776V103.56H52.776ZM52.776 110.832H51.776V111.782L52.7243 111.831L52.776 110.832ZM54.864 110.94H55.864V109.99L54.9157 109.941L54.864 110.94ZM54.864 114V115H55.864V114H54.864ZM46.152 114H45.152V115H46.152V114ZM46.152 111.084L46.0615 110.088L45.152 110.171V111.084H46.152ZM47.34 110.976L47.4305 111.972L47.4429 111.971L47.34 110.976ZM48.384 93.228H49.384V92.2792L48.4366 92.2294L48.384 93.228ZM46.332 93.12H45.332V94.0688L46.2794 94.1186L46.332 93.12ZM46.332 90.06V89.06H45.332V90.06H46.332ZM55.044 90.06H56.044V89.06H55.044V90.06ZM55.044 92.976L55.1345 93.9719L56.044 93.8892V92.976H55.044ZM53.856 93.084L53.7655 92.0881L53.7487 92.0896L53.732 92.0917L53.856 93.084ZM53.028 93.408L53.6788 94.1673L53.708 94.1423L53.7351 94.1151L53.028 93.408ZM52.776 99.852H51.776V100.852H52.776V99.852ZM62.964 99.852V100.852H63.964V99.852H62.964ZM62.964 93.228H63.964V92.2792L63.0166 92.2294L62.964 93.228ZM60.912 93.12H59.912V94.0688L60.8594 94.1186L60.912 93.12ZM60.912 90.06V89.06H59.912V90.06H60.912ZM69.624 90.06H70.624V89.06H69.624V90.06ZM69.624 92.976L69.7145 93.9719L70.624 93.8892V92.976H69.624ZM68.436 93.084L68.3455 92.088L68.3331 92.0893L68.436 93.084ZM67.392 110.832H66.392V111.781L67.3394 111.831L67.392 110.832ZM69.444 110.94H70.444V109.991L69.4966 109.941L69.444 110.94ZM69.444 114V115H70.444V114H69.444ZM60.732 114H59.732V115H60.732V114ZM60.732 111.084L60.6415 110.088L59.732 110.171V111.084H60.732ZM61.92 110.976L62.0105 111.972L62.0314 111.97L62.0522 111.967L61.92 110.976ZM62.712 110.688L63.3628 111.447L63.392 111.422L63.4191 111.395L62.712 110.688ZM63.964 109.788V103.56H61.964V109.788H63.964ZM62.964 102.56H52.776V104.56H62.964V102.56ZM51.776 103.56V110.832H53.776V103.56H51.776ZM52.7243 111.831L54.8123 111.939L54.9157 109.941L52.8277 109.833L52.7243 111.831ZM53.864 110.94V114H55.864V110.94H53.864ZM54.864 113H46.152V115H54.864V113ZM47.152 114V111.084H45.152V114H47.152ZM46.2425 112.08L47.4305 111.972L47.2495 109.98L46.0615 110.088L46.2425 112.08ZM47.4429 111.971C47.9171 111.922 48.4247 111.769 48.8176 111.389C49.2316 110.99 49.384 110.47 49.384 109.968H47.384C47.384 110.022 47.3761 110.034 47.3814 110.02C47.3883 110.001 47.4043 109.974 47.4284 109.951C47.4504 109.929 47.4594 109.931 47.4328 109.941C47.4038 109.952 47.3428 109.97 47.2371 109.981L47.4429 111.971ZM49.384 109.968V93.228H47.384V109.968H49.384ZM48.4366 92.2294L46.3846 92.1214L46.2794 94.1186L48.3314 94.2266L48.4366 92.2294ZM47.332 93.12V90.06H45.332V93.12H47.332ZM46.332 91.06H55.044V89.06H46.332V91.06ZM54.044 90.06V92.976H56.044V90.06H54.044ZM54.9535 91.9801L53.7655 92.0881L53.9465 94.0799L55.1345 93.9719L54.9535 91.9801ZM53.732 92.0917C53.2554 92.1513 52.7179 92.3039 52.3209 92.7009L53.7351 94.1151C53.7006 94.1496 53.6851 94.148 53.7254 94.1322C53.7668 94.1161 53.8468 94.0929 53.98 94.0763L53.732 92.0917ZM52.3772 92.6487C51.8503 93.1004 51.776 93.798 51.776 94.272H53.776C53.776 94.1956 53.7798 94.136 53.785 94.0909C53.7903 94.0454 53.7965 94.0206 53.799 94.012C53.8054 93.9899 53.786 94.0753 53.6788 94.1673L52.3772 92.6487ZM51.776 94.272V99.852H53.776V94.272H51.776ZM52.776 100.852H62.964V98.852H52.776V100.852ZM63.964 99.852V93.228H61.964V99.852H63.964ZM63.0166 92.2294L60.9646 92.1214L60.8594 94.1186L62.9114 94.2266L63.0166 92.2294ZM61.912 93.12V90.06H59.912V93.12H61.912ZM60.912 91.06H69.624V89.06H60.912V91.06ZM68.624 90.06V92.976H70.624V90.06H68.624ZM69.5335 91.9801L68.3455 92.0881L68.5265 94.0799L69.7145 93.9719L69.5335 91.9801ZM68.3331 92.0893C67.8268 92.1417 67.3021 92.324 66.912 92.7545C66.5212 93.1858 66.392 93.7262 66.392 94.236H68.392C68.392 94.1434 68.4038 94.0956 68.4091 94.0792C68.4132 94.0665 68.4111 94.0786 68.394 94.0975C68.3769 94.1163 68.3657 94.1189 68.3795 94.1129C68.3968 94.1053 68.445 94.0884 68.5389 94.0787L68.3331 92.0893ZM66.392 94.236V110.832H68.392V94.236H66.392ZM67.3394 111.831L69.3914 111.939L69.4966 109.941L67.4446 109.833L67.3394 111.831ZM68.444 110.94V114H70.444V110.94H68.444ZM69.444 113H60.732V115H69.444V113ZM61.732 114V111.084H59.732V114H61.732ZM60.8225 112.08L62.0105 111.972L61.8295 109.98L60.6415 110.088L60.8225 112.08ZM62.0522 111.967C62.4929 111.908 62.9814 111.774 63.3628 111.447L62.0612 109.929C62.0894 109.905 62.0944 109.911 62.0463 109.928C61.9984 109.946 61.9159 109.968 61.7878 109.985L62.0522 111.967ZM63.4191 111.395C63.8789 110.935 63.964 110.288 63.964 109.788H61.964C61.964 109.945 61.948 110.032 61.938 110.067C61.9284 110.102 61.9354 110.05 62.0049 109.981L63.4191 111.395ZM87.9809 96.612H88.9809V95.9199L88.3331 95.6761L87.9809 96.612ZM88.1609 110.796L87.3927 111.436L87.4217 111.471L87.4538 111.503L88.1609 110.796ZM88.8809 111.048L88.8097 112.045L88.8185 112.046L88.8809 111.048ZM90.0329 111.12H91.0329V110.181L90.0953 110.122L90.0329 111.12ZM90.0329 114V115H91.0329V114H90.0329ZM84.3089 114H83.3089V115H84.3089V114ZM84.3089 111.912H85.3089V111.191L84.6251 110.963L84.3089 111.912ZM84.2009 111.876L84.5171 110.927L83.8067 110.691L83.3795 111.306L84.2009 111.876ZM73.8329 112.128L73.0344 112.73L73.0344 112.73L73.8329 112.128ZM74.4449 98.088L73.6899 97.4323L73.6899 97.4323L74.4449 98.088ZM83.8049 98.952H84.8049V98.3138L84.226 98.045L83.8049 98.952ZM77.5409 100.428L78.4151 100.914L78.4151 100.914L77.5409 100.428ZM82.7969 110.472L83.4774 111.205L83.4843 111.198L83.491 111.192L82.7969 110.472ZM86.9809 96.612V110.004H88.9809V96.612H86.9809ZM86.9809 110.004C86.9809 110.417 87.03 111.001 87.3927 111.436L88.9291 110.156C88.9688 110.203 88.9888 110.243 88.9971 110.262C89.0052 110.28 89.0047 110.285 89.001 110.268C88.9928 110.232 88.9809 110.15 88.9809 110.004H86.9809ZM87.4538 111.503C87.8487 111.898 88.3796 112.015 88.8097 112.045L88.9522 110.051C88.9006 110.047 88.8608 110.041 88.8312 110.036C88.8015 110.03 88.7851 110.025 88.7793 110.023C88.7667 110.019 88.8108 110.032 88.868 110.089L87.4538 111.503ZM88.8185 112.046L89.9705 112.118L90.0953 110.122L88.9433 110.05L88.8185 112.046ZM89.0329 111.12V114H91.0329V111.12H89.0329ZM90.0329 113H84.3089V115H90.0329V113ZM85.3089 114V111.912H83.3089V114H85.3089ZM84.6251 110.963L84.5171 110.927L83.8847 112.825L83.9927 112.861L84.6251 110.963ZM83.3795 111.306C82.3647 112.767 81.0263 113.468 79.2689 113.468V115.468C81.6875 115.468 83.6371 114.441 85.0223 112.446L83.3795 111.306ZM79.2689 113.468C77.0468 113.468 75.5712 112.773 74.6314 111.526L73.0344 112.73C74.4467 114.603 76.595 115.468 79.2689 115.468V113.468ZM74.6314 111.526C73.6284 110.196 73.0689 108.297 73.0689 105.72H71.0689C71.0689 108.567 71.6854 110.94 73.0344 112.73L74.6314 111.526ZM73.0689 105.72C73.0689 102.612 73.822 100.33 75.1999 98.7437L73.6899 97.4323C71.8998 99.4936 71.0689 102.3 71.0689 105.72H73.0689ZM75.1999 98.7437C76.5391 97.2017 78.5987 96.352 81.5729 96.352V94.352C78.2111 94.352 75.5188 95.3263 73.6899 97.4323L75.1999 98.7437ZM81.5729 96.352C83.4741 96.352 85.4906 96.7433 87.6287 97.5479L88.3331 95.6761C86.0072 94.8007 83.7517 94.352 81.5729 94.352V96.352ZM84.8049 108.276V98.952H82.8049V108.276H84.8049ZM84.226 98.045C83.3671 97.6462 82.2783 97.484 81.0329 97.484V99.484C82.1396 99.484 82.8987 99.6338 83.3838 99.859L84.226 98.045ZM81.0329 97.484C79.0994 97.484 77.5807 98.2973 76.6667 99.9424L78.4151 100.914C78.9411 99.9667 79.7504 99.484 81.0329 99.484V97.484ZM76.6667 99.9424C75.8358 101.438 75.4609 103.34 75.4609 105.576H77.4609C77.4609 103.54 77.806 102.01 78.4151 100.914L76.6667 99.9424ZM75.4609 105.576C75.4609 107.595 75.7791 109.281 76.5554 110.49C77.3803 111.775 78.6491 112.408 80.2049 112.408V110.408C79.2647 110.408 78.6615 110.069 78.2384 109.41C77.7667 108.675 77.4609 107.445 77.4609 105.576H75.4609ZM80.2049 112.408C81.4723 112.408 82.5924 112.027 83.4774 111.205L82.1165 109.739C81.6574 110.165 81.0495 110.408 80.2049 110.408V112.408ZM83.491 111.192C84.3277 110.385 84.8049 109.403 84.8049 108.276H82.8049C82.8049 108.781 82.6101 109.263 82.1028 109.752L83.491 111.192ZM93.6911 99.168L92.8774 99.7492L92.9255 99.8166L92.984 99.8751L93.6911 99.168ZM93.0071 98.916L92.9359 99.9135L92.9715 99.916H93.0071V98.916ZM91.4951 98.808H90.4951V99.7391L91.4239 99.8055L91.4951 98.808ZM91.4951 95.892V94.892H90.4951V95.892H91.4951ZM97.5791 95.892H98.5791V94.892H97.5791V95.892ZM97.5791 98.232H96.5791L98.4615 98.7026L97.5791 98.232ZM99.6671 96.252L99.1556 95.3927L99.1556 95.3927L99.6671 96.252ZM107.659 111.948L106.886 111.314L106.886 111.314L107.659 111.948ZM98.0471 113.496L98.5722 112.645L97.0471 111.704V113.496H98.0471ZM98.0471 118.464H97.0471V119.416L97.9978 119.463L98.0471 118.464ZM100.963 118.608H101.963V117.656L101.012 117.609L100.963 118.608ZM100.963 121.452V122.452H101.963V121.452H100.963ZM91.6751 121.452H90.6751V122.452H91.6751V121.452ZM91.6751 118.716L91.5846 117.72L90.6751 117.803V118.716H91.6751ZM92.8631 118.608L92.9537 119.604L92.9745 119.602L92.9953 119.599L92.8631 118.608ZM93.6551 118.284L93.0043 117.525L92.9752 117.55L92.948 117.577L93.6551 118.284ZM99.0911 99.78L99.7441 100.537L99.7461 100.536L99.0911 99.78ZM98.0471 110.22H97.0471V110.759L97.4975 111.055L98.0471 110.22ZM104.311 109.32L103.439 108.831L103.435 108.838L103.431 108.845L104.311 109.32ZM94.9071 117.42V99.996H92.9071V117.42H94.9071ZM94.9071 99.996C94.9071 99.5535 94.8464 98.9091 94.3982 98.4609L92.984 99.8751C92.9361 99.8272 92.9094 99.7834 92.8963 99.7581C92.8837 99.7336 92.8823 99.7233 92.8855 99.7354C92.8886 99.7473 92.8943 99.774 92.8991 99.8194C92.9039 99.8645 92.9071 99.9227 92.9071 99.996H94.9071ZM94.5049 98.5868C94.1035 98.0248 93.4614 97.916 93.0071 97.916V99.916C93.0991 99.916 93.1146 99.9285 93.0844 99.9173C93.0667 99.9108 93.0338 99.8963 92.9944 99.8677C92.9538 99.8383 92.9128 99.7988 92.8774 99.7492L94.5049 98.5868ZM93.0784 97.9185L91.5664 97.8105L91.4239 99.8055L92.9359 99.9135L93.0784 97.9185ZM92.4951 98.808V95.892H90.4951V98.808H92.4951ZM91.4951 96.892H97.5791V94.892H91.4951V96.892ZM96.5791 95.892V98.232H98.5791V95.892H96.5791ZM98.4615 98.7026C98.73 98.1991 99.2626 97.6566 100.179 97.1113L99.1556 95.3927C98.0557 96.0474 97.1963 96.8249 96.6968 97.7614L98.4615 98.7026ZM100.179 97.1113C101.005 96.6193 102.021 96.352 103.267 96.352V94.352C101.729 94.352 100.345 94.6847 99.1556 95.3927L100.179 97.1113ZM103.267 96.352C105.175 96.352 106.473 97.0027 107.34 98.2183C108.25 99.4963 108.783 101.537 108.783 104.496H110.783C110.783 101.359 110.23 98.8277 108.969 97.0577C107.663 95.2253 105.703 94.352 103.267 94.352V96.352ZM108.783 104.496C108.783 107.606 108.102 109.83 106.886 111.314L108.433 112.582C110.048 110.61 110.783 107.866 110.783 104.496H108.783ZM106.886 111.314C105.677 112.789 104.053 113.54 101.899 113.54V115.54C104.594 115.54 106.809 114.563 108.433 112.582L106.886 111.314ZM101.899 113.54C100.628 113.54 99.5288 113.235 98.5722 112.645L97.522 114.347C98.8214 115.149 100.29 115.54 101.899 115.54V113.54ZM97.0471 113.496V118.464H99.0471V113.496H97.0471ZM97.9978 119.463L100.914 119.607L101.012 117.609L98.0964 117.465L97.9978 119.463ZM99.9631 118.608V121.452H101.963V118.608H99.9631ZM100.963 120.452H91.6751V122.452H100.963V120.452ZM92.6751 121.452V118.716H90.6751V121.452H92.6751ZM91.7657 119.712L92.9537 119.604L92.7726 117.612L91.5846 117.72L91.7657 119.712ZM92.9953 119.599C93.4641 119.537 93.976 119.377 94.3622 118.991L92.948 117.577C92.9747 117.55 92.9857 117.552 92.9525 117.565C92.9176 117.58 92.8482 117.601 92.731 117.617L92.9953 119.599ZM94.3059 119.043C94.8329 118.592 94.9071 117.894 94.9071 117.42H92.9071C92.9071 117.496 92.9034 117.556 92.8981 117.601C92.8928 117.647 92.8866 117.671 92.8841 117.68C92.8777 117.702 92.8971 117.617 93.0043 117.525L94.3059 119.043ZM106.319 104.856C106.319 102.784 106.012 101.063 105.266 99.8295C104.471 98.5154 103.23 97.844 101.683 97.844V99.844C102.56 99.844 103.137 100.175 103.554 100.865C104.021 101.635 104.319 102.92 104.319 104.856H106.319ZM101.683 97.844C100.45 97.844 99.3491 98.2331 98.4362 99.0243L99.7461 100.536C100.273 100.079 100.901 99.844 101.683 99.844V97.844ZM98.4382 99.0226C97.5452 99.7924 97.0471 100.78 97.0471 101.94H99.0471C99.0471 101.42 99.2451 100.968 99.7441 100.537L98.4382 99.0226ZM97.0471 101.94V110.22H99.0471V101.94H97.0471ZM97.4975 111.055C98.6012 111.782 99.905 112.12 101.359 112.12V110.12C100.221 110.12 99.317 109.858 98.5967 109.385L97.4975 111.055ZM101.359 112.12C102.176 112.12 102.937 111.933 103.608 111.524C104.277 111.116 104.798 110.522 105.191 109.795L103.431 108.845C103.176 109.318 102.882 109.624 102.567 109.816C102.253 110.007 101.863 110.12 101.359 110.12V112.12ZM105.184 109.809C105.96 108.422 106.319 106.755 106.319 104.856H104.319C104.319 106.509 104.006 107.818 103.439 108.831L105.184 109.809ZM114.152 99.168L113.338 99.7492L113.386 99.8166L113.445 99.8751L114.152 99.168ZM113.468 98.916L113.397 99.9135L113.432 99.916H113.468V98.916ZM111.956 98.808H110.956V99.7391L111.885 99.8055L111.956 98.808ZM111.956 95.892V94.892H110.956V95.892H111.956ZM118.04 95.892H119.04V94.892H118.04V95.892ZM118.04 98.232H117.04L118.922 98.7026L118.04 98.232ZM120.128 96.252L119.617 95.3927L119.617 95.3927L120.128 96.252ZM128.12 111.948L127.347 111.314L127.347 111.314L128.12 111.948ZM118.508 113.496L119.033 112.645L117.508 111.704V113.496H118.508ZM118.508 118.464H117.508V119.416L118.459 119.463L118.508 118.464ZM121.424 118.608H122.424V117.656L121.473 117.609L121.424 118.608ZM121.424 121.452V122.452H122.424V121.452H121.424ZM112.136 121.452H111.136V122.452H112.136V121.452ZM112.136 118.716L112.046 117.72L111.136 117.803V118.716H112.136ZM113.324 118.608L113.415 119.604L113.435 119.602L113.456 119.599L113.324 118.608ZM114.116 118.284L113.465 117.525L113.436 117.55L113.409 117.577L114.116 118.284ZM119.552 99.78L120.205 100.537L120.207 100.536L119.552 99.78ZM118.508 110.22H117.508V110.759L117.958 111.055L118.508 110.22ZM124.772 109.32L123.9 108.831L123.896 108.838L123.892 108.845L124.772 109.32ZM115.368 117.42V99.996H113.368V117.42H115.368ZM115.368 99.996C115.368 99.5535 115.307 98.9091 114.859 98.4609L113.445 99.8751C113.397 99.8272 113.37 99.7834 113.357 99.7581C113.345 99.7336 113.343 99.7233 113.346 99.7354C113.35 99.7473 113.355 99.774 113.36 99.8194C113.365 99.8645 113.368 99.9227 113.368 99.996H115.368ZM114.966 98.5868C114.564 98.0248 113.922 97.916 113.468 97.916V99.916C113.56 99.916 113.576 99.9285 113.545 99.9173C113.528 99.9108 113.495 99.8963 113.455 99.8677C113.415 99.8383 113.374 99.7988 113.338 99.7492L114.966 98.5868ZM113.539 97.9185L112.027 97.8105L111.885 99.8055L113.397 99.9135L113.539 97.9185ZM112.956 98.808V95.892H110.956V98.808H112.956ZM111.956 96.892H118.04V94.892H111.956V96.892ZM117.04 95.892V98.232H119.04V95.892H117.04ZM118.922 98.7026C119.191 98.1991 119.724 97.6566 120.64 97.1113L119.617 95.3927C118.517 96.0474 117.657 96.8249 117.158 97.7614L118.922 98.7026ZM120.64 97.1113C121.466 96.6193 122.482 96.352 123.728 96.352V94.352C122.19 94.352 120.806 94.6847 119.617 95.3927L120.64 97.1113ZM123.728 96.352C125.636 96.352 126.934 97.0027 127.801 98.2183C128.711 99.4963 129.244 101.537 129.244 104.496H131.244C131.244 101.359 130.691 98.8277 129.429 97.0577C128.124 95.2253 126.164 94.352 123.728 94.352V96.352ZM129.244 104.496C129.244 107.606 128.563 109.83 127.347 111.314L128.894 112.582C130.509 110.61 131.244 107.866 131.244 104.496H129.244ZM127.347 111.314C126.138 112.789 124.513 113.54 122.36 113.54V115.54C125.055 115.54 127.27 114.563 128.894 112.582L127.347 111.314ZM122.36 113.54C121.089 113.54 119.99 113.235 119.033 112.645L117.983 114.347C119.282 115.149 120.751 115.54 122.36 115.54V113.54ZM117.508 113.496V118.464H119.508V113.496H117.508ZM118.459 119.463L121.375 119.607L121.473 117.609L118.557 117.465L118.459 119.463ZM120.424 118.608V121.452H122.424V118.608H120.424ZM121.424 120.452H112.136V122.452H121.424V120.452ZM113.136 121.452V118.716H111.136V121.452H113.136ZM112.227 119.712L113.415 119.604L113.234 117.612L112.046 117.72L112.227 119.712ZM113.456 119.599C113.925 119.537 114.437 119.377 114.823 118.991L113.409 117.577C113.436 117.55 113.447 117.552 113.413 117.565C113.379 117.58 113.309 117.601 113.192 117.617L113.456 119.599ZM114.767 119.043C115.294 118.592 115.368 117.894 115.368 117.42H113.368C113.368 117.496 113.364 117.556 113.359 117.601C113.354 117.647 113.348 117.671 113.345 117.68C113.339 117.702 113.358 117.617 113.465 117.525L114.767 119.043ZM126.78 104.856C126.78 102.784 126.473 101.063 125.727 99.8295C124.932 98.5154 123.691 97.844 122.144 97.844V99.844C123.021 99.844 123.598 100.175 124.015 100.865C124.482 101.635 124.78 102.92 124.78 104.856H126.78ZM122.144 97.844C120.911 97.844 119.81 98.2331 118.897 99.0243L120.207 100.536C120.734 100.079 121.361 99.844 122.144 99.844V97.844ZM118.899 99.0226C118.006 99.7924 117.508 100.78 117.508 101.94H119.508C119.508 101.42 119.706 100.968 120.205 100.537L118.899 99.0226ZM117.508 101.94V110.22H119.508V101.94H117.508ZM117.958 111.055C119.062 111.782 120.366 112.12 121.82 112.12V110.12C120.682 110.12 119.778 109.858 119.058 109.385L117.958 111.055ZM121.82 112.12C122.636 112.12 123.398 111.933 124.069 111.524C124.737 111.116 125.259 110.522 125.652 109.795L123.892 108.845C123.637 109.318 123.343 109.624 123.027 109.816C122.714 110.007 122.324 110.12 121.82 110.12V112.12ZM125.645 109.809C126.421 108.422 126.78 106.755 126.78 104.856H124.78C124.78 106.509 124.467 107.818 123.9 108.831L125.645 109.809ZM146.061 110.58H147.061V107.427L145.244 110.004L146.061 110.58ZM133.749 98.916L133.687 99.9141L133.698 99.9148L133.709 99.9152L133.749 98.916ZM132.597 98.844H131.597V99.7834L132.535 99.8421L132.597 98.844ZM132.597 95.892V94.892H131.597V95.892H132.597ZM138.933 95.892H139.933V94.892H138.933V95.892ZM139.473 109.104L140.347 108.618L140.347 108.618L139.473 109.104ZM144.405 109.032L143.698 108.325L143.692 108.331L143.686 108.337L144.405 109.032ZM145.233 99.168L144.419 99.7492L144.467 99.8166L144.526 99.8751L145.233 99.168ZM144.549 98.916L144.487 99.9141L144.518 99.916H144.549V98.916ZM143.397 98.844H142.397V99.7834L143.335 99.8421L143.397 98.844ZM143.397 95.892V94.892H142.397V95.892H143.397ZM149.733 95.892H150.733V94.892H149.733V95.892ZM147.609 119.688L146.921 118.963L146.914 118.969L147.609 119.688ZM134.613 120.516H133.613V121.134L134.166 121.41L134.613 120.516ZM134.613 115.512L134.529 114.516L133.613 114.593V115.512H134.613ZM138.033 115.224H139.033V114.136L137.949 114.228L138.033 115.224ZM138.933 118.248L139.304 117.32L139.288 117.313L139.272 117.307L138.933 118.248ZM147.061 113.316V110.58H145.061V113.316H147.061ZM145.244 110.004C144.136 111.575 142.518 112.388 140.229 112.388V114.388C143.076 114.388 145.346 113.329 146.878 111.156L145.244 110.004ZM140.229 112.388C138.553 112.388 137.471 111.925 136.789 111.164C136.088 110.381 135.649 109.107 135.649 107.16H133.649C133.649 109.365 134.14 111.205 135.299 112.498C136.477 113.813 138.185 114.388 140.229 114.388V112.388ZM135.649 107.16V99.924H133.649V107.16H135.649ZM135.649 99.924C135.649 99.4608 135.543 98.9376 135.17 98.52C134.785 98.0893 134.266 97.9359 133.789 97.9168L133.709 99.9152C133.771 99.9177 133.786 99.927 133.771 99.921C133.763 99.9177 133.749 99.9109 133.731 99.8985C133.712 99.8859 133.694 99.8702 133.678 99.852C133.662 99.8339 133.651 99.817 133.644 99.8041C133.637 99.7916 133.635 99.7852 133.636 99.7881C133.637 99.7912 133.64 99.8032 133.643 99.8261C133.647 99.849 133.649 99.8812 133.649 99.924H135.649ZM133.811 97.9179L132.659 97.8459L132.535 99.8421L133.687 99.9141L133.811 97.9179ZM133.597 98.844V95.892H131.597V98.844H133.597ZM132.597 96.892H138.933V94.892H132.597V96.892ZM137.933 95.892V106.224H139.933V95.892H137.933ZM137.933 106.224C137.933 107.56 138.117 108.722 138.599 109.59L140.347 108.618C140.109 108.19 139.933 107.432 139.933 106.224H137.933ZM138.599 109.59C139.217 110.702 140.42 111.076 141.705 111.076V109.076C140.734 109.076 140.449 108.802 140.347 108.618L138.599 109.59ZM141.705 111.076C143.055 111.076 144.233 110.65 145.124 109.727L143.686 108.337C143.233 108.806 142.611 109.076 141.705 109.076V111.076ZM145.112 109.739C145.996 108.856 146.449 107.761 146.449 106.512H144.449C144.449 107.231 144.206 107.816 143.698 108.325L145.112 109.739ZM146.449 106.512V99.996H144.449V106.512H146.449ZM146.449 99.996C146.449 99.5535 146.388 98.9091 145.94 98.4609L144.526 99.8751C144.478 99.8272 144.451 99.7834 144.438 99.7581C144.426 99.7336 144.424 99.7233 144.427 99.7354C144.43 99.7473 144.436 99.774 144.441 99.8194C144.446 99.8645 144.449 99.9227 144.449 99.996H146.449ZM146.047 98.5868C145.645 98.0248 145.003 97.916 144.549 97.916V99.916C144.641 99.916 144.656 99.9285 144.626 99.9173C144.609 99.9108 144.576 99.8963 144.536 99.8677C144.496 99.8383 144.455 99.7988 144.419 99.7492L146.047 98.5868ZM144.611 97.9179L143.459 97.8459L143.335 99.8421L144.487 99.9141L144.611 97.9179ZM144.397 98.844V95.892H142.397V98.844H144.397ZM143.397 96.892H149.733V94.892H143.397V96.892ZM148.733 95.892V113.316H150.733V95.892H148.733ZM148.733 113.316C148.733 116.079 148.058 117.883 146.921 118.963L148.297 120.413C149.992 118.805 150.733 116.361 150.733 113.316H148.733ZM146.914 118.969C145.781 120.063 143.956 120.704 141.237 120.704V122.704C144.23 122.704 146.653 122.001 148.304 120.407L146.914 118.969ZM141.237 120.704C138.477 120.704 136.446 120.315 135.06 119.622L134.166 121.41C135.948 122.301 138.333 122.704 141.237 122.704V120.704ZM135.613 120.516V115.512H133.613V120.516H135.613ZM134.697 116.508L138.117 116.22L137.949 114.228L134.529 114.516L134.697 116.508ZM137.033 115.224V116.952H139.033V115.224H137.033ZM137.033 116.952C137.033 117.432 137.146 117.914 137.437 118.332C137.728 118.753 138.141 119.026 138.594 119.189L139.272 117.307C139.125 117.254 139.088 117.203 139.079 117.192C139.07 117.178 139.033 117.12 139.033 116.952H137.033ZM138.562 119.176C139.331 119.484 140.304 119.608 141.417 119.608V117.608C140.418 117.608 139.735 117.492 139.304 117.32L138.562 119.176ZM141.417 119.608C143.156 119.608 144.632 119.107 145.652 117.945C146.65 116.807 147.061 115.204 147.061 113.316H145.061C145.061 114.956 144.698 115.999 144.148 116.625C143.62 117.227 142.774 117.608 141.417 117.608V119.608Z" fill="black" mask="url(#path-21-outside-1_2618_387)"/>
</g>
<mask id="path-23-outside-2_2618_387" maskUnits="userSpaceOnUse" x="83" y="124" width="105" height="29" fill="black">
<rect fill="white" x="83" y="124" width="105" height="29"/>
<path d="M91.848 146.968V130.624H89.04C88.488 130.624 88.212 130.996 88.212 131.74V133.432L84.54 133.18V127.06H103.368V133.18L99.696 133.432V131.74C99.696 131.332 99.636 131.044 99.516 130.876C99.396 130.708 99.108 130.624 98.652 130.624H96.204V147.832L99.048 147.94V151H88.896V148.084L90.804 147.976C91.5 147.904 91.848 147.568 91.848 146.968ZM107.318 146.968V136.996C107.318 136.612 107.246 136.348 107.102 136.204C106.982 136.036 106.754 135.94 106.418 135.916L104.906 135.808V132.892H110.99V135.592C111.422 134.656 112.094 133.888 113.006 133.288C113.918 132.664 114.962 132.352 116.138 132.352C117.338 132.352 118.478 132.616 119.558 133.144V138.508L116.21 138.76V137.104C116.21 136.624 116.09 136.324 115.85 136.204C115.586 136.084 115.262 136.024 114.878 136.024C113.918 136.024 113.126 136.372 112.502 137.068C111.902 137.74 111.602 138.604 111.602 139.66V148.012L114.734 148.156V151H105.086V148.264L106.274 148.156C106.634 148.108 106.898 148.012 107.066 147.868C107.234 147.7 107.318 147.4 107.318 146.968ZM137.879 133.612V147.004C137.879 147.388 137.939 147.652 138.059 147.796C138.203 147.94 138.443 148.024 138.779 148.048L139.931 148.12V151H134.207V148.912L134.099 148.876C132.899 150.604 131.255 151.468 129.167 151.468C126.719 151.468 124.907 150.688 123.731 149.128C122.555 147.568 121.967 145.432 121.967 142.72C121.967 139.456 122.759 136.912 124.343 135.088C125.927 133.264 128.303 132.352 131.471 132.352C133.511 132.352 135.647 132.772 137.879 133.612ZM133.703 145.276V135.952C133.031 135.64 132.107 135.484 130.931 135.484C129.323 135.484 128.159 136.132 127.439 137.428C126.719 138.724 126.359 140.44 126.359 142.576C126.359 146.464 127.607 148.408 130.103 148.408C131.159 148.408 132.023 148.096 132.695 147.472C133.367 146.824 133.703 146.092 133.703 145.276ZM151.644 132.892H159.24V135.7L158.124 135.772C157.644 135.82 157.32 136.108 157.152 136.636L152.508 151H147L141.96 136.672C141.84 136.336 141.708 136.108 141.564 135.988C141.444 135.868 141.228 135.796 140.916 135.772L139.872 135.7V132.892H148.332V135.772L146.136 135.88L149.844 147.724H149.916L153.516 135.88L151.644 135.772V132.892ZM169.81 132.352C171.61 132.352 173.038 132.796 174.094 133.684C175.15 134.548 175.678 135.772 175.678 137.356C175.678 138.412 175.45 139.348 174.994 140.164C174.538 140.956 173.974 141.58 173.302 142.036C172.63 142.492 171.814 142.864 170.854 143.152C169.246 143.632 167.434 143.872 165.418 143.872C165.49 145.144 165.886 146.176 166.606 146.968C167.326 147.736 168.43 148.12 169.918 148.12C171.406 148.12 172.894 147.592 174.382 146.536L175.75 149.452C175.27 149.884 174.454 150.328 173.302 150.784C172.174 151.24 170.878 151.468 169.414 151.468C166.486 151.468 164.338 150.664 162.97 149.056C161.602 147.424 160.918 145.192 160.918 142.36C160.918 139.528 161.698 137.152 163.258 135.232C164.818 133.312 167.002 132.352 169.81 132.352ZM168.154 140.596C169.042 140.428 169.858 140.08 170.602 139.552C171.346 139 171.718 138.352 171.718 137.608C171.718 136.144 170.998 135.412 169.558 135.412C168.214 135.412 167.182 135.952 166.462 137.032C165.742 138.088 165.346 139.36 165.274 140.848C166.33 140.824 167.29 140.74 168.154 140.596ZM184.655 125.332V148.012L186.707 148.12V151H178.139V148.264L179.327 148.156C180.023 148.084 180.371 147.7 180.371 147.004V129.256C180.371 128.728 180.071 128.44 179.471 128.392L178.211 128.32V125.332H184.655Z"/>
</mask>
<path d="M91.848 146.968V130.624H89.04C88.488 130.624 88.212 130.996 88.212 131.74V133.432L84.54 133.18V127.06H103.368V133.18L99.696 133.432V131.74C99.696 131.332 99.636 131.044 99.516 130.876C99.396 130.708 99.108 130.624 98.652 130.624H96.204V147.832L99.048 147.94V151H88.896V148.084L90.804 147.976C91.5 147.904 91.848 147.568 91.848 146.968ZM107.318 146.968V136.996C107.318 136.612 107.246 136.348 107.102 136.204C106.982 136.036 106.754 135.94 106.418 135.916L104.906 135.808V132.892H110.99V135.592C111.422 134.656 112.094 133.888 113.006 133.288C113.918 132.664 114.962 132.352 116.138 132.352C117.338 132.352 118.478 132.616 119.558 133.144V138.508L116.21 138.76V137.104C116.21 136.624 116.09 136.324 115.85 136.204C115.586 136.084 115.262 136.024 114.878 136.024C113.918 136.024 113.126 136.372 112.502 137.068C111.902 137.74 111.602 138.604 111.602 139.66V148.012L114.734 148.156V151H105.086V148.264L106.274 148.156C106.634 148.108 106.898 148.012 107.066 147.868C107.234 147.7 107.318 147.4 107.318 146.968ZM137.879 133.612V147.004C137.879 147.388 137.939 147.652 138.059 147.796C138.203 147.94 138.443 148.024 138.779 148.048L139.931 148.12V151H134.207V148.912L134.099 148.876C132.899 150.604 131.255 151.468 129.167 151.468C126.719 151.468 124.907 150.688 123.731 149.128C122.555 147.568 121.967 145.432 121.967 142.72C121.967 139.456 122.759 136.912 124.343 135.088C125.927 133.264 128.303 132.352 131.471 132.352C133.511 132.352 135.647 132.772 137.879 133.612ZM133.703 145.276V135.952C133.031 135.64 132.107 135.484 130.931 135.484C129.323 135.484 128.159 136.132 127.439 137.428C126.719 138.724 126.359 140.44 126.359 142.576C126.359 146.464 127.607 148.408 130.103 148.408C131.159 148.408 132.023 148.096 132.695 147.472C133.367 146.824 133.703 146.092 133.703 145.276ZM151.644 132.892H159.24V135.7L158.124 135.772C157.644 135.82 157.32 136.108 157.152 136.636L152.508 151H147L141.96 136.672C141.84 136.336 141.708 136.108 141.564 135.988C141.444 135.868 141.228 135.796 140.916 135.772L139.872 135.7V132.892H148.332V135.772L146.136 135.88L149.844 147.724H149.916L153.516 135.88L151.644 135.772V132.892ZM169.81 132.352C171.61 132.352 173.038 132.796 174.094 133.684C175.15 134.548 175.678 135.772 175.678 137.356C175.678 138.412 175.45 139.348 174.994 140.164C174.538 140.956 173.974 141.58 173.302 142.036C172.63 142.492 171.814 142.864 170.854 143.152C169.246 143.632 167.434 143.872 165.418 143.872C165.49 145.144 165.886 146.176 166.606 146.968C167.326 147.736 168.43 148.12 169.918 148.12C171.406 148.12 172.894 147.592 174.382 146.536L175.75 149.452C175.27 149.884 174.454 150.328 173.302 150.784C172.174 151.24 170.878 151.468 169.414 151.468C166.486 151.468 164.338 150.664 162.97 149.056C161.602 147.424 160.918 145.192 160.918 142.36C160.918 139.528 161.698 137.152 163.258 135.232C164.818 133.312 167.002 132.352 169.81 132.352ZM168.154 140.596C169.042 140.428 169.858 140.08 170.602 139.552C171.346 139 171.718 138.352 171.718 137.608C171.718 136.144 170.998 135.412 169.558 135.412C168.214 135.412 167.182 135.952 166.462 137.032C165.742 138.088 165.346 139.36 165.274 140.848C166.33 140.824 167.29 140.74 168.154 140.596ZM184.655 125.332V148.012L186.707 148.12V151H178.139V148.264L179.327 148.156C180.023 148.084 180.371 147.7 180.371 147.004V129.256C180.371 128.728 180.071 128.44 179.471 128.392L178.211 128.32V125.332H184.655Z" fill="#40C0E7"/>
<path d="M91.848 130.624H92.848V129.624H91.848V130.624ZM88.212 133.432L88.1435 134.43L89.212 134.503V133.432H88.212ZM84.54 133.18H83.54V134.114L84.4715 134.178L84.54 133.18ZM84.54 127.06V126.06H83.54V127.06H84.54ZM103.368 127.06H104.368V126.06H103.368V127.06ZM103.368 133.18L103.436 134.178L104.368 134.114V133.18H103.368ZM99.696 133.432H98.696V134.503L99.7645 134.43L99.696 133.432ZM99.516 130.876L98.7023 131.457L98.7023 131.457L99.516 130.876ZM96.204 130.624V129.624H95.204V130.624H96.204ZM96.204 147.832H95.204V148.795L96.1661 148.831L96.204 147.832ZM99.048 147.94H100.048V146.977L99.0859 146.941L99.048 147.94ZM99.048 151V152H100.048V151H99.048ZM88.896 151H87.896V152H88.896V151ZM88.896 148.084L88.8395 147.086L87.896 147.139V148.084H88.896ZM90.804 147.976L90.8605 148.974L90.8837 148.973L90.9069 148.971L90.804 147.976ZM92.848 146.968V130.624H90.848V146.968H92.848ZM91.848 129.624H89.04V131.624H91.848V129.624ZM89.04 129.624C88.5159 129.624 87.9799 129.816 87.6159 130.307C87.2934 130.742 87.212 131.274 87.212 131.74H89.212C89.212 131.613 89.2241 131.534 89.2345 131.492C89.2446 131.451 89.2485 131.463 89.2221 131.499C89.2086 131.517 89.1895 131.538 89.1642 131.558C89.1389 131.579 89.1125 131.595 89.0876 131.606C89.0375 131.628 89.0134 131.624 89.04 131.624V129.624ZM87.212 131.74V133.432H89.212V131.74H87.212ZM88.2805 132.434L84.6085 132.182L84.4715 134.178L88.1435 134.43L88.2805 132.434ZM85.54 133.18V127.06H83.54V133.18H85.54ZM84.54 128.06H103.368V126.06H84.54V128.06ZM102.368 127.06V133.18H104.368V127.06H102.368ZM103.3 132.182L99.6275 132.434L99.7645 134.43L103.436 134.178L103.3 132.182ZM100.696 133.432V131.74H98.696V133.432H100.696ZM100.696 131.74C100.696 131.294 100.642 130.732 100.33 130.295L98.7023 131.457C98.655 131.391 98.6592 131.36 98.672 131.422C98.6838 131.479 98.696 131.58 98.696 131.74H100.696ZM100.33 130.295C100.092 129.962 99.7549 129.804 99.49 129.727C99.2209 129.649 98.931 129.624 98.652 129.624V131.624C98.7363 131.624 98.8015 131.628 98.8503 131.633C98.8998 131.639 98.9244 131.645 98.93 131.647C98.9363 131.649 98.9109 131.642 98.869 131.617C98.825 131.589 98.7609 131.539 98.7023 131.457L100.33 130.295ZM98.652 129.624H96.204V131.624H98.652V129.624ZM95.204 130.624V147.832H97.204V130.624H95.204ZM96.1661 148.831L99.0101 148.939L99.0859 146.941L96.2419 146.833L96.1661 148.831ZM98.048 147.94V151H100.048V147.94H98.048ZM99.048 150H88.896V152H99.048V150ZM89.896 151V148.084H87.896V151H89.896ZM88.9525 149.082L90.8605 148.974L90.7475 146.978L88.8395 147.086L88.9525 149.082ZM90.9069 148.971C91.3811 148.922 91.8887 148.769 92.2816 148.389C92.6956 147.99 92.848 147.47 92.848 146.968H90.848C90.848 147.022 90.8401 147.034 90.8454 147.02C90.8523 147.001 90.8683 146.974 90.8924 146.951C90.9144 146.929 90.9234 146.931 90.8968 146.941C90.8678 146.952 90.8068 146.97 90.7011 146.981L90.9069 148.971ZM107.102 136.204L106.289 136.785L106.337 136.853L106.395 136.911L107.102 136.204ZM106.418 135.916L106.49 134.919L106.49 134.919L106.418 135.916ZM104.906 135.808H103.906V136.739L104.835 136.805L104.906 135.808ZM104.906 132.892V131.892H103.906V132.892H104.906ZM110.99 132.892H111.99V131.892H110.99V132.892ZM110.99 135.592H109.99L111.898 136.011L110.99 135.592ZM113.006 133.288L113.556 134.123L113.564 134.118L113.571 134.113L113.006 133.288ZM119.558 133.144H120.558V132.52L119.998 132.246L119.558 133.144ZM119.558 138.508L119.633 139.505L120.558 139.436V138.508H119.558ZM116.21 138.76H115.21V139.838L116.285 139.757L116.21 138.76ZM115.85 136.204L116.298 135.31L116.281 135.301L116.264 135.294L115.85 136.204ZM112.502 137.068L111.758 136.4L111.757 136.402L112.502 137.068ZM111.602 148.012H110.602V148.967L111.557 149.011L111.602 148.012ZM114.734 148.156H115.734V147.201L114.78 147.157L114.734 148.156ZM114.734 151V152H115.734V151H114.734ZM105.086 151H104.086V152H105.086V151ZM105.086 148.264L104.996 147.268L104.086 147.351V148.264H105.086ZM106.274 148.156L106.365 149.152L106.386 149.15L106.407 149.147L106.274 148.156ZM107.066 147.868L107.717 148.627L107.746 148.602L107.774 148.575L107.066 147.868ZM108.318 146.968V136.996H106.318V146.968H108.318ZM108.318 136.996C108.318 136.557 108.25 135.937 107.81 135.497L106.395 136.911C106.309 136.825 106.294 136.753 106.3 136.773C106.302 136.781 106.307 136.802 106.311 136.841C106.315 136.88 106.318 136.931 106.318 136.996H108.318ZM107.916 135.623C107.538 135.094 106.938 134.951 106.49 134.919L106.347 136.913C106.393 136.917 106.423 136.922 106.442 136.926C106.461 136.93 106.463 136.932 106.453 136.928C106.443 136.923 106.419 136.912 106.388 136.888C106.356 136.864 106.321 136.83 106.289 136.785L107.916 135.623ZM106.49 134.919L104.978 134.811L104.835 136.805L106.347 136.913L106.49 134.919ZM105.906 135.808V132.892H103.906V135.808H105.906ZM104.906 133.892H110.99V131.892H104.906V133.892ZM109.99 132.892V135.592H111.99V132.892H109.99ZM111.898 136.011C112.247 135.255 112.79 134.627 113.556 134.123L112.457 132.453C111.398 133.149 110.597 134.057 110.082 135.173L111.898 136.011ZM113.571 134.113C114.306 133.611 115.15 133.352 116.138 133.352V131.352C114.775 131.352 113.531 131.717 112.442 132.463L113.571 134.113ZM116.138 133.352C117.186 133.352 118.176 133.581 119.119 134.042L119.998 132.246C118.781 131.651 117.491 131.352 116.138 131.352V133.352ZM118.558 133.144V138.508H120.558V133.144H118.558ZM119.483 137.511L116.135 137.763L116.285 139.757L119.633 139.505L119.483 137.511ZM117.21 138.76V137.104H115.21V138.76H117.21ZM117.21 137.104C117.21 136.553 117.084 135.703 116.298 135.31L115.403 137.098C115.34 137.067 115.288 137.024 115.249 136.979C115.211 136.935 115.196 136.9 115.192 136.89C115.188 136.881 115.194 136.892 115.2 136.93C115.205 136.968 115.21 137.024 115.21 137.104H117.21ZM116.264 135.294C115.835 135.099 115.361 135.024 114.878 135.024V137.024C115.164 137.024 115.337 137.069 115.437 137.114L116.264 135.294ZM114.878 135.024C113.643 135.024 112.577 135.486 111.758 136.4L113.247 137.736C113.676 137.258 114.194 137.024 114.878 137.024V135.024ZM111.757 136.402C110.965 137.288 110.602 138.403 110.602 139.66H112.602C112.602 138.805 112.84 138.192 113.248 137.734L111.757 136.402ZM110.602 139.66V148.012H112.602V139.66H110.602ZM111.557 149.011L114.689 149.155L114.78 147.157L111.648 147.013L111.557 149.011ZM113.734 148.156V151H115.734V148.156H113.734ZM114.734 150H105.086V152H114.734V150ZM106.086 151V148.264H104.086V151H106.086ZM105.177 149.26L106.365 149.152L106.184 147.16L104.996 147.268L105.177 149.26ZM106.407 149.147C106.847 149.088 107.336 148.954 107.717 148.627L106.416 147.109C106.444 147.085 106.449 147.091 106.401 147.108C106.353 147.126 106.27 147.148 106.142 147.165L106.407 149.147ZM107.774 148.575C108.233 148.115 108.318 147.468 108.318 146.968H106.318C106.318 147.125 106.302 147.212 106.292 147.247C106.283 147.282 106.29 147.23 106.359 147.161L107.774 148.575ZM137.879 133.612H138.879V132.92L138.232 132.676L137.879 133.612ZM138.059 147.796L137.291 148.436L137.32 148.471L137.352 148.503L138.059 147.796ZM138.779 148.048L138.708 149.045L138.717 149.046L138.779 148.048ZM139.931 148.12H140.931V147.181L139.994 147.122L139.931 148.12ZM139.931 151V152H140.931V151H139.931ZM134.207 151H133.207V152H134.207V151ZM134.207 148.912H135.207V148.191L134.524 147.963L134.207 148.912ZM134.099 148.876L134.416 147.927L133.705 147.691L133.278 148.306L134.099 148.876ZM123.731 149.128L122.933 149.73L122.933 149.73L123.731 149.128ZM124.343 135.088L123.588 134.432L123.588 134.432L124.343 135.088ZM133.703 135.952H134.703V135.314L134.124 135.045L133.703 135.952ZM127.439 137.428L128.314 137.914L128.314 137.914L127.439 137.428ZM132.695 147.472L133.376 148.205L133.383 148.198L133.389 148.192L132.695 147.472ZM136.879 133.612V147.004H138.879V133.612H136.879ZM136.879 147.004C136.879 147.417 136.928 148.001 137.291 148.436L138.828 147.156C138.867 147.203 138.887 147.243 138.896 147.262C138.904 147.28 138.903 147.285 138.899 147.268C138.891 147.232 138.879 147.15 138.879 147.004H136.879ZM137.352 148.503C137.747 148.898 138.278 149.015 138.708 149.045L138.851 147.051C138.799 147.047 138.759 147.041 138.73 147.036C138.7 147.03 138.684 147.025 138.678 147.023C138.665 147.019 138.709 147.032 138.766 147.089L137.352 148.503ZM138.717 149.046L139.869 149.118L139.994 147.122L138.842 147.05L138.717 149.046ZM138.931 148.12V151H140.931V148.12H138.931ZM139.931 150H134.207V152H139.931V150ZM135.207 151V148.912H133.207V151H135.207ZM134.524 147.963L134.416 147.927L133.783 149.825L133.891 149.861L134.524 147.963ZM133.278 148.306C132.263 149.767 130.925 150.468 129.167 150.468V152.468C131.586 152.468 133.536 151.441 134.921 149.446L133.278 148.306ZM129.167 150.468C126.945 150.468 125.47 149.773 124.53 148.526L122.933 149.73C124.345 151.603 126.493 152.468 129.167 152.468V150.468ZM124.53 148.526C123.527 147.196 122.967 145.297 122.967 142.72H120.967C120.967 145.567 121.584 147.94 122.933 149.73L124.53 148.526ZM122.967 142.72C122.967 139.612 123.72 137.33 125.098 135.744L123.588 134.432C121.798 136.494 120.967 139.3 120.967 142.72H122.967ZM125.098 135.744C126.437 134.202 128.497 133.352 131.471 133.352V131.352C128.11 131.352 125.417 132.326 123.588 134.432L125.098 135.744ZM131.471 133.352C133.373 133.352 135.389 133.743 137.527 134.548L138.232 132.676C135.906 131.801 133.65 131.352 131.471 131.352V133.352ZM134.703 145.276V135.952H132.703V145.276H134.703ZM134.124 135.045C133.266 134.646 132.177 134.484 130.931 134.484V136.484C132.038 136.484 132.797 136.634 133.282 136.859L134.124 135.045ZM130.931 134.484C128.998 134.484 127.479 135.297 126.565 136.942L128.314 137.914C128.84 136.967 129.649 136.484 130.931 136.484V134.484ZM126.565 136.942C125.734 138.438 125.359 140.34 125.359 142.576H127.359C127.359 140.54 127.704 139.01 128.314 137.914L126.565 136.942ZM125.359 142.576C125.359 144.595 125.678 146.281 126.454 147.49C127.279 148.775 128.548 149.408 130.103 149.408V147.408C129.163 147.408 128.56 147.069 128.137 146.41C127.665 145.675 127.359 144.445 127.359 142.576H125.359ZM130.103 149.408C131.371 149.408 132.491 149.027 133.376 148.205L132.015 146.739C131.556 147.165 130.948 147.408 130.103 147.408V149.408ZM133.389 148.192C134.226 147.385 134.703 146.403 134.703 145.276H132.703C132.703 145.781 132.509 146.263 132.001 146.752L133.389 148.192ZM151.644 132.892V131.892H150.644V132.892H151.644ZM159.24 132.892H160.24V131.892H159.24V132.892ZM159.24 135.7L159.304 136.698L160.24 136.638V135.7H159.24ZM158.124 135.772L158.059 134.774L158.042 134.775L158.024 134.777L158.124 135.772ZM157.152 136.636L158.103 136.944L158.105 136.939L157.152 136.636ZM152.508 151V152H153.235L153.459 151.308L152.508 151ZM147 151L146.056 151.332L146.291 152H147V151ZM141.96 136.672L142.903 136.34L142.901 136.336L141.96 136.672ZM141.564 135.988L140.857 136.695L140.889 136.727L140.924 136.756L141.564 135.988ZM140.916 135.772L140.992 134.775L140.985 134.774L140.916 135.772ZM139.872 135.7H138.872V136.633L139.803 136.698L139.872 135.7ZM139.872 132.892V131.892H138.872V132.892H139.872ZM148.332 132.892H149.332V131.892H148.332V132.892ZM148.332 135.772L148.381 136.771L149.332 136.724V135.772H148.332ZM146.136 135.88L146.087 134.881L144.795 134.945L145.181 136.179L146.136 135.88ZM149.844 147.724L148.889 148.023L149.109 148.724H149.844V147.724ZM149.916 147.724V148.724H150.657L150.872 148.015L149.916 147.724ZM153.516 135.88L154.472 136.171L154.842 134.955L153.573 134.882L153.516 135.88ZM151.644 135.772H150.644V136.716L151.586 136.77L151.644 135.772ZM151.644 133.892H159.24V131.892H151.644V133.892ZM158.24 132.892V135.7H160.24V132.892H158.24ZM159.175 134.702L158.059 134.774L158.188 136.77L159.304 136.698L159.175 134.702ZM158.024 134.777C157.599 134.819 157.193 134.977 156.856 135.277C156.527 135.569 156.322 135.944 156.199 136.333L158.105 136.939C158.149 136.8 158.19 136.767 158.185 136.771C158.185 136.772 158.183 136.773 158.181 136.774C158.179 136.775 158.178 136.776 158.179 136.776C158.179 136.776 158.191 136.77 158.223 136.767L158.024 134.777ZM156.2 136.328L151.556 150.692L153.459 151.308L158.103 136.944L156.2 136.328ZM152.508 150H147V152H152.508V150ZM147.943 150.668L142.903 136.34L141.016 137.004L146.056 151.332L147.943 150.668ZM142.901 136.336C142.767 135.959 142.561 135.517 142.204 135.22L140.924 136.756C140.877 136.717 140.876 136.7 140.905 136.75C140.932 136.797 140.972 136.879 141.018 137.008L142.901 136.336ZM142.271 135.281C141.889 134.899 141.365 134.804 140.992 134.775L140.839 136.769C140.888 136.773 140.926 136.778 140.953 136.783C140.98 136.788 140.993 136.792 140.995 136.793C140.998 136.793 140.984 136.789 140.96 136.775C140.935 136.761 140.898 136.736 140.857 136.695L142.271 135.281ZM140.985 134.774L139.941 134.702L139.803 136.698L140.847 136.77L140.985 134.774ZM140.872 135.7V132.892H138.872V135.7H140.872ZM139.872 133.892H148.332V131.892H139.872V133.892ZM147.332 132.892V135.772H149.332V132.892H147.332ZM148.283 134.773L146.087 134.881L146.185 136.879L148.381 136.771L148.283 134.773ZM145.181 136.179L148.889 148.023L150.798 147.425L147.09 135.581L145.181 136.179ZM149.844 148.724H149.916V146.724H149.844V148.724ZM150.872 148.015L154.472 136.171L152.559 135.589L148.959 147.433L150.872 148.015ZM153.573 134.882L151.701 134.774L151.586 136.77L153.458 136.878L153.573 134.882ZM152.644 135.772V132.892H150.644V135.772H152.644ZM174.094 133.684L173.45 134.449L173.461 134.458L174.094 133.684ZM174.994 140.164L175.861 140.663L175.867 140.652L174.994 140.164ZM173.302 142.036L172.74 141.209L172.74 141.209L173.302 142.036ZM170.854 143.152L171.14 144.11L171.141 144.11L170.854 143.152ZM165.418 143.872V142.872H164.36L164.42 143.929L165.418 143.872ZM166.606 146.968L165.866 147.641L165.871 147.646L165.876 147.652L166.606 146.968ZM174.382 146.536L175.287 146.111L174.779 145.028L173.803 145.72L174.382 146.536ZM175.75 149.452L176.419 150.195L176.97 149.699L176.655 149.027L175.75 149.452ZM173.302 150.784L172.934 149.854L172.927 149.857L173.302 150.784ZM162.97 149.056L162.204 149.698L162.208 149.704L162.97 149.056ZM163.258 135.232L162.482 134.601L162.482 134.601L163.258 135.232ZM168.154 140.596L168.318 141.582L168.329 141.581L168.34 141.579L168.154 140.596ZM170.602 139.552L171.181 140.368L171.189 140.361L171.198 140.355L170.602 139.552ZM166.462 137.032L167.288 137.595L167.294 137.587L166.462 137.032ZM165.274 140.848L164.275 140.8L164.223 141.872L165.297 141.848L165.274 140.848ZM169.81 133.352C171.447 133.352 172.623 133.754 173.45 134.449L174.738 132.919C173.452 131.838 171.773 131.352 169.81 131.352V133.352ZM173.461 134.458C174.246 135.1 174.678 136.018 174.678 137.356H176.678C176.678 135.526 176.054 133.996 174.727 132.91L173.461 134.458ZM174.678 137.356C174.678 138.264 174.483 139.028 174.121 139.676L175.867 140.652C176.417 139.668 176.678 138.56 176.678 137.356H174.678ZM174.127 139.665C173.737 140.342 173.272 140.848 172.74 141.209L173.863 142.863C174.676 142.312 175.339 141.57 175.861 140.663L174.127 139.665ZM172.74 141.209C172.17 141.596 171.451 141.929 170.567 142.194L171.141 144.11C172.177 143.799 173.09 143.388 173.863 142.863L172.74 141.209ZM170.568 142.194C169.069 142.641 167.356 142.872 165.418 142.872V144.872C167.512 144.872 169.423 144.623 171.14 144.11L170.568 142.194ZM164.42 143.929C164.502 145.384 164.964 146.648 165.866 147.641L167.346 146.295C166.808 145.704 166.478 144.904 166.416 143.815L164.42 143.929ZM165.876 147.652C166.853 148.693 168.27 149.12 169.918 149.12V147.12C168.59 147.12 167.799 146.779 167.335 146.284L165.876 147.652ZM169.918 149.12C171.656 149.12 173.342 148.5 174.961 147.352L173.803 145.72C172.445 146.684 171.156 147.12 169.918 147.12V149.12ZM173.477 146.961L174.845 149.877L176.655 149.027L175.287 146.111L173.477 146.961ZM175.081 148.709C174.737 149.018 174.058 149.409 172.934 149.854L173.67 151.714C174.85 151.247 175.803 150.75 176.419 150.195L175.081 148.709ZM172.927 149.857C171.94 150.256 170.775 150.468 169.414 150.468V152.468C170.981 152.468 172.408 152.224 173.677 151.711L172.927 149.857ZM169.414 150.468C166.661 150.468 164.844 149.716 163.732 148.408L162.208 149.704C163.832 151.612 166.311 152.468 169.414 152.468V150.468ZM163.736 148.414C162.563 147.014 161.918 145.035 161.918 142.36H159.918C159.918 145.349 160.641 147.834 162.204 149.698L163.736 148.414ZM161.918 142.36C161.918 139.723 162.64 137.579 164.034 135.863L162.482 134.601C160.756 136.725 159.918 139.333 159.918 142.36H161.918ZM164.034 135.863C165.377 134.21 167.257 133.352 169.81 133.352V131.352C166.747 131.352 164.259 132.414 162.482 134.601L164.034 135.863ZM168.34 141.579C169.371 141.384 170.32 140.978 171.181 140.368L170.023 138.736C169.395 139.182 168.713 139.472 167.968 139.613L168.34 141.579ZM171.198 140.355C172.127 139.666 172.718 138.746 172.718 137.608H170.718C170.718 137.958 170.565 138.334 170.006 138.749L171.198 140.355ZM172.718 137.608C172.718 136.726 172.501 135.88 171.891 135.26C171.278 134.636 170.436 134.412 169.558 134.412V136.412C170.12 136.412 170.358 136.554 170.465 136.662C170.575 136.774 170.718 137.026 170.718 137.608H172.718ZM169.558 134.412C167.894 134.412 166.543 135.107 165.63 136.477L167.294 137.587C167.821 136.797 168.534 136.412 169.558 136.412V134.412ZM165.636 136.469C164.796 137.701 164.355 139.158 164.275 140.8L166.273 140.896C166.337 139.562 166.688 138.475 167.288 137.595L165.636 136.469ZM165.297 141.848C166.391 141.823 167.399 141.736 168.318 141.582L167.99 139.61C167.181 139.744 166.269 139.825 165.251 139.848L165.297 141.848ZM184.655 125.332H185.655V124.332H184.655V125.332ZM184.655 148.012H183.655V148.961L184.603 149.011L184.655 148.012ZM186.707 148.12H187.707V147.171L186.76 147.121L186.707 148.12ZM186.707 151V152H187.707V151H186.707ZM178.139 151H177.139V152H178.139V151ZM178.139 148.264L178.049 147.268L177.139 147.351V148.264H178.139ZM179.327 148.156L179.418 149.152L179.43 149.151L179.327 148.156ZM179.471 128.392L179.551 127.395L179.54 127.394L179.528 127.394L179.471 128.392ZM178.211 128.32H177.211V129.264L178.154 129.318L178.211 128.32ZM178.211 125.332V124.332H177.211V125.332H178.211ZM183.655 125.332V148.012H185.655V125.332H183.655ZM184.603 149.011L186.655 149.119L186.76 147.121L184.708 147.013L184.603 149.011ZM185.707 148.12V151H187.707V148.12H185.707ZM186.707 150H178.139V152H186.707V150ZM179.139 151V148.264H177.139V151H179.139ZM178.23 149.26L179.418 149.152L179.237 147.16L178.049 147.268L178.23 149.26ZM179.43 149.151C179.937 149.098 180.461 148.916 180.851 148.486C181.242 148.054 181.371 147.514 181.371 147.004H179.371C179.371 147.097 179.36 147.144 179.354 147.161C179.35 147.174 179.352 147.161 179.369 147.142C179.386 147.124 179.398 147.121 179.384 147.127C179.367 147.135 179.318 147.152 179.225 147.161L179.43 149.151ZM181.371 147.004V129.256H179.371V147.004H181.371ZM181.371 129.256C181.371 128.797 181.235 128.303 180.839 127.923C180.462 127.561 179.981 127.43 179.551 127.395L179.392 129.389C179.472 129.395 179.508 129.407 179.515 129.41C179.52 129.411 179.491 129.401 179.454 129.365C179.436 129.348 179.419 129.328 179.405 129.306C179.391 129.285 179.382 129.265 179.377 129.25C179.366 129.221 179.371 129.217 179.371 129.256H181.371ZM179.528 127.394L178.268 127.322L178.154 129.318L179.414 129.39L179.528 127.394ZM179.211 128.32V125.332H177.211V128.32H179.211ZM178.211 126.332H184.655V124.332H178.211V126.332Z" fill="black" mask="url(#path-23-outside-2_2618_387)"/>
<defs>
<linearGradient id="paint0_linear_2618_387" x1="107.5" y1="0" x2="107.5" y2="200" gradientUnits="userSpaceOnUse">
<stop/>
<stop offset="1" stop-color="#CFE7EC"/>
</linearGradient>
<clipPath id="clip0_2618_387">
<rect width="117.965" height="84.2342" fill="white" transform="translate(37 40)"/>
</clipPath>
<clipPath id="clip1_2618_387">
<rect width="47" height="57" fill="white" transform="translate(36.7594 27.7605)"/>
</clipPath>
</defs>
</svg>
