<svg id="Layer_5" data-name="Layer 5" xmlns="http://www.w3.org/2000/svg" viewBox="0 0 640 640"><defs><style>.cls-1{fill:#c4fdfe;}.cls-2{fill:#a2fcfc;}.cls-3{fill:#95d600;}.cls-4{fill:#bdee48;}.cls-5{fill:#7ec700;}.cls-6{fill:#fff;}.cls-7{fill:#82bc00;}.cls-8{fill:#231f20;}.cls-9{fill:#a9e41f;}.cls-10{fill:#d0f67b;}.cls-11{fill:#00bfd5;}</style></defs><path class="cls-1" d="M49.87,290.63c116.7-131.3,315.74,6.62,400-125.55S665,88,621,303.85,414.74,670.05,165.6,611.19C-10.44,569.6-18,367,49.87,290.63Z"/><path class="cls-2" d="M621,303.85C597.2,420.36,539,517.77,451.32,573.52A315.46,315.46,0,0,1,406.94,597c-67.21,29-148.21,36.19-241.37,14.18C-4,571.14-17.24,381.72,42.66,299.59H129.8a16.5,16.5,0,0,1,16.5,16.5v75.24H336.9v-57.5H522V197.73a16.51,16.51,0,0,1,16.51-16.51h87.87C632,213.47,631,254.45,621,303.85Z"/><path class="cls-1" d="M470,560.74C392.78,617.81,290,640.59,165.6,611.18c-40.31-9.52-71.78-27.48-95.54-50.44Z"/><path class="cls-2" d="M470,560.74C392.78,617.81,290,640.59,165.6,611.18c-40.31-9.52-71.78-27.48-95.54-50.44Z"/><path class="cls-3" d="M187,558.3c-29.52-7-54.91-28.74-75.93-65.28-5.12-8.9-11.46-10.39-15.68-8.82-1.78.66-5.78,2.91-4.51,9.43A15.12,15.12,0,1,1,61.2,499.4c-3.7-19.06,6-36.95,23.62-43.53,16.29-6.07,38.83-1.61,52.46,22.07,16.53,28.74,34.77,45.31,55.75,50.64,19.09,4.83,41.05.56,67.2-13.11a15.12,15.12,0,1,1,14,26.79Q226,567.49,187,558.3Z"/><path class="cls-4" d="M383.46,546.28H367.68l-10.39-26.52-50.33-5-8.16,31.55H277.51a7.24,7.24,0,0,0,0,14.47h106a7.24,7.24,0,1,0,0-14.47Z"/><path class="cls-3" d="M479.6,262.37a3.15,3.15,0,0,0,5.23-2.53C479.2,160.06,425.8,96.36,368,103a59,59,0,0,0-14.52,3.12l5.09,12.11c31-3.59,68.28,34.71,69.87,100.9s-31.9,104.21-60.86,111.54l-14.1,15.17,20.6,17.87c59.3,0,85.27-46,93.66-97.14a7.17,7.17,0,0,1,11.85-4.15Z"/><path class="cls-5" d="M462.31,290.47c-12.11,40.7-38.4,73.2-88.22,73.2l-15.48-13.45-5.12-4.44,14.1-15.17S419.28,359.68,462.31,290.47Z"/><path class="cls-3" d="M376.7,407.57c0,66.81-47.1,140.15-82.73,140.15s-98-22.45-98-117.49c0-75.17,72.54-158.47,119.49-158.47C351.1,271.76,376.7,323.4,376.7,407.57Z"/><path class="cls-5" d="M362.29,314.74c-7.76,18.09-21.36,16.44-32.34,37.77-2,4-40.55-19.26-53.32-35.65-5.19-6.67-10.25-13.19-14.31-19.59,18.11-15.79,37.13-25.51,53.18-25.51C337.33,271.76,348.67,282.05,362.29,314.74Z"/><path class="cls-3" d="M396.93,164.39c-30.23-27.37-53-6.86-80.21-6-27,.87-55.39-19.68-82.1,7-8.46,9.78-18.44,39.63-15.44,65.49a.82.82,0,0,0,.71.73.89.89,0,0,0,.89-.51l4.35-10.6c-.59,16.63.63,58.81,38.18,87.64a.81.81,0,0,0,.88.09.83.83,0,0,0,.46-.76l-.13-7.21c3.62,7.65,12.17,14.68,21.09,22,11.48,9.45,37,18.67,37.92,15.74,8.47-11.76,19.34-13.36,31.05-22.81,9-7.27,13.79-11.84,17.47-19.47l-.18,7.22a.83.83,0,0,0,1.33.69c37.8-28.51,34.53-77.27,34.08-93.91l4.27,10.64a.82.82,0,0,0,.88.52.84.84,0,0,0,.72-.73C414.94,194.85,402.71,169.62,396.93,164.39Z"/><path class="cls-6" d="M355.91,184.38c-14.64-6.92-29.07-1.75-36.52,8.74a4.07,4.07,0,0,1-6.63,0c-7.45-10.49-21.88-15.66-36.52-8.74a28.4,28.4,0,0,0-11.54,11.5c-10,21.12,5.11,41.84,25.09,41.81h52.56c20,0,35.13-20.69,25.1-41.81A28.4,28.4,0,0,0,355.91,184.38Z"/><path class="cls-6" d="M350.2,261.2c0,21.86-12.26,47.39-34.13,47.39S282,283.06,282,261.2s12.26-36.48,34.12-36.48S350.2,239.33,350.2,261.2Z"/><path class="cls-3" d="M316.07,311.69c-11,0-20.93-6-27.88-16.93-5.94-9.34-9.35-21.57-9.35-33.56,0-24.42,14.27-39.59,37.23-39.59s37.24,15.17,37.24,39.59c0,12-3.41,24.22-9.35,33.56C337,305.68,327.11,311.69,316.07,311.69Zm0-83.87c-19.42,0-31,12.48-31,33.38,0,21.29,11.86,44.28,31,44.28s31-23,31-44.28C347.1,240.3,335.5,227.82,316.07,227.82Z"/><circle class="cls-3" cx="311.03" cy="239.5" r="3.2"/><circle class="cls-3" cx="321.12" cy="239.5" r="3.2"/><path class="cls-7" d="M316.07,194.85h0c2.68,0,3.32-3,3.37-3.28,1-6.6,3.47-11.94,6.74-17.43A45.88,45.88,0,0,1,401,170s-20.32-35-61.89-21.14A62.29,62.29,0,0,1,316,153.38a63.26,63.26,0,0,1-23-4.55C251.45,134.94,231.39,170,231.39,170a45.13,45.13,0,0,1,37-17.42A45.88,45.88,0,0,1,306,174.14c3.28,5.49,5.75,10.83,6.75,17.43,0,.28.69,3.28,3.36,3.28Z"/><circle class="cls-8" cx="292.91" cy="213.34" r="10.75"/><circle class="cls-6" cx="299.66" cy="207.29" r="4.09"/><circle class="cls-8" cx="339.51" cy="213.34" r="10.75"/><circle class="cls-6" cx="346.26" cy="207.29" r="4.09"/><circle class="cls-3" cx="330.49" cy="268.78" r="6.88"/><ellipse class="cls-3" cx="376.7" cy="474.17" rx="74.99" ry="57.57" transform="translate(-190.14 687.32) rotate(-72.14)"/><path class="cls-5" d="M393.51,416.59A14.1,14.1,0,0,0,387,434.18c6.47,16.45,7.16,37.11.55,57.64-7.67,23.8-23.4,42-41.32,50.53-25-13.45-35.9-49.82-24.3-85.84,7.66-23.78,23.38-42,41.31-50.51l.55.31c11.95-5.88,24.93-7.45,37.15-3.51a46.84,46.84,0,0,1,22.46,15.87l.32,1.4C411.21,411,400.73,412.75,393.51,416.59Z"/><ellipse class="cls-3" cx="306.38" cy="474.17" rx="74.99" ry="57.57" transform="translate(-238.9 620.39) rotate(-72.14)"/><path class="cls-9" d="M435.23,450.35a71.46,71.46,0,0,0-7-22.27s0,0,0,0c-14.64-24.73-44.08-35.23-87.77,13.51a117.64,117.64,0,0,1-19.17,17.19c-18.24,13.06-37.8,19.2-54,22a2,2,0,0,1-2.12-2.88c5-10.14,4-20.16-8.39-28.42-42.17-28-30.44-81.64-17.57-108,.56-1.14,1.11-2.22,1.68-3.25a.06.06,0,0,1,0,0c6-10.64,15.21-16.75,22.92-14.27,6.13,2,9.86,8.92,10.45,17.8,0,1.27,0,2.52.07,3.73,1.07,36.6,16.18,49.14,62.15,46.85,47.49-2.37,85.21-18.81,105.59,17.52C450.05,424,445.37,443.15,435.23,450.35Z"/><path class="cls-10" d="M353.49,106.07c-26.86,11.17-40.75,39.07-21.95,59.91,9.42,10.44,19.65-4.34,13.69-19.25s5.59-27.31,13.35-28.55Z"/><path class="cls-10" d="M435.23,450.35a71.46,71.46,0,0,0-7-22.27s0,0,0,0c-6-10.2-14.6-18-25.63-20.18a18.28,18.28,0,0,0,4.69-8.8c1.28-5.11.7-9.89-1.23-12.3,14.92,1.3,27.15,7.09,36.05,23C450.05,424,445.37,443.15,435.23,450.35Z"/><path class="cls-1" d="M228,58.81c4-12.07,2.5-24.55-5.31-33.18-12-13.23-34.38-12.73-51.79.5-18.6-6.69-41-7.52-63.48-.91C60,39.2,30.53,81.13,41.65,118.87s58.6,57,106,43c25-7.36,45-22.5,56.71-40.69,18.7,6.86,39-1.3,45.49-18.39S246.6,66.08,228,58.81Z"/><ellipse class="cls-1" cx="282.15" cy="114.59" rx="17.05" ry="18.64" transform="translate(52.76 314.88) rotate(-63.23)"/><path class="cls-11" d="M104.79,101.35C101,89.14,114.35,83,112.67,77.55c-.75-2.38-3-3.67-7.69-2.22a15,15,0,0,0-7,4.87,5.89,5.89,0,0,1-7.62,1.22l-4.14-2.55a5.92,5.92,0,0,1-1.69-8.56,34.56,34.56,0,0,1,17.35-12.05c14.26-4.45,25.28-.3,28.52,10.08,4.82,15.45-11.56,21.86-9,30l0,0a6.06,6.06,0,0,1-2.45,7.1l-3.9,2.41a5.92,5.92,0,0,1-8-1.75A18.42,18.42,0,0,1,104.79,101.35Zm7.19,24.2a10.64,10.64,0,1,1,13.33,7A10.77,10.77,0,0,1,112,125.55Z"/><path class="cls-11" d="M148.92,90.46c.37-11.29,13.31-12.58,13.47-17.57.07-2.2-1.47-4-5.77-4.09a13.16,13.16,0,0,0-7.22,2,5.19,5.19,0,0,1-6.71-1.19L140,66.33A5.23,5.23,0,0,1,141,58.7a30.51,30.51,0,0,1,18-5c13.19.42,21.18,7.08,20.87,16.68-.46,14.29-16,14.89-16.22,22.39v.05a5.33,5.33,0,0,1-4.1,5.21l-4,.87a5.18,5.18,0,0,1-6.16-3.61A17.05,17.05,0,0,1,148.92,90.46Zm-1,22.28a9.4,9.4,0,1,1,9.09,9.69A9.49,9.49,0,0,1,147.91,112.74Z"/></svg>